M48
INCH
T1C0.0157
T2C0.0236
T3C0.0315
T4C0.0354
T5C0.0394
T6C0.0433
T7C0.0579
T8C0.0591
T9C0.1260
%
G90
G05
T1
X2.64Y-5.96
X2.72Y-6.31
X2.7643Y-6.3857
X2.84Y-5.96
X3.18Y-5.89
X3.37Y-6.3
X3.48Y-6.3
X3.52Y-6.3
X3.89Y-5.91
X4.97Y-6.39
X4.99Y-6.48
X4.99Y-6.53
X4.99Y-6.58
X6.55Y-6.56
X6.73Y-6.38
X8.52Y-5.49
X8.52Y-5.6
X8.86Y-5.6
X9.07Y-5.6
X9.32Y-5.41
X9.58Y-11.65
X9.89Y-11.72
X10.4Y-5.29
X10.645Y-5.245
X10.745Y-5.225
X10.845Y-5.205
X11.23Y-11.29
X11.86Y-5.65
X11.98Y-11.29
X12.74Y-11.29
X13.49Y-11.29
X14.24Y-11.3
X15.62Y-6.86
X15.64Y-6.68
X15.675Y-6.895
X17.1Y-6.34
X17.1043Y-6.3857
X18.48Y-6.54
X18.5037Y-7.8663
X18.55Y-6.54
T2
X8.2709Y-5.72
X8.33Y-5.72
T3
X8.72Y-8.38
X8.72Y-8.68
X13.04Y-10.95
X13.04Y-11.25
X8.91Y-4.93
X9.21Y-4.93
X18.43Y-8.1
X18.73Y-8.1
X7.79Y-10.95
X7.79Y-11.25
X3.6Y-9.13
X3.6Y-9.43
X9.32Y-4.77
X9.32Y-5.07
X17.23Y-8.38
X17.23Y-8.68
X9.66Y-6.88
X9.66Y-7.18
X12.47Y-8.38
X12.47Y-8.68
X17.98Y-6.13
X17.98Y-6.43
X6.1Y-7.63
X6.1Y-7.93
X8.16Y-6.88
X8.16Y-7.18
X7.04Y-10.95
X7.04Y-11.25
X17.98Y-9.13
X17.98Y-9.43
X13.22Y-9.13
X13.22Y-9.43
X7.79Y-6.13
X7.79Y-6.43
X9.39Y-11.53
X9.39Y-11.83
X9.49Y-11.53
X9.49Y-11.83
X9.59Y-11.53
X9.59Y-11.83
X9.69Y-11.53
X9.69Y-11.83
X9.79Y-11.53
X9.79Y-11.83
X9.89Y-11.53
X9.89Y-11.83
X9.99Y-11.53
X9.99Y-11.83
X10.09Y-11.53
X10.09Y-11.83
X10.19Y-11.53
X10.19Y-11.83
X10.29Y-11.53
X10.29Y-11.83
X10.39Y-11.53
X10.39Y-11.83
X10.49Y-11.53
X10.49Y-11.83
X10.59Y-11.53
X10.59Y-11.83
X10.69Y-11.53
X10.69Y-11.83
X9.54Y-9.13
X9.54Y-9.43
X11.72Y-8.38
X11.72Y-8.68
X15.09Y-9.13
X15.09Y-9.43
X13.79Y-10.2
X13.79Y-10.5
X13.04Y-6.13
X13.04Y-6.43
X8.935Y-5.47
X9.235Y-5.47
X9.1Y-7.63
X9.1Y-7.93
X6.29Y-10.2
X6.29Y-10.5
X14.96Y-6.88
X14.96Y-7.18
X9.85Y-7.63
X9.85Y-7.93
X12.29Y-10.2
X12.29Y-10.5
X10.79Y-10.94
X10.79Y-11.24
X9.47Y-8.38
X9.47Y-8.68
X2.1Y-9.13
X2.1Y-9.43
X9.29Y-6.13
X9.29Y-6.43
X11.91Y-6.88
X11.91Y-7.18
X3.6Y-7.63
X3.6Y-7.93
X14.05Y-8.1
X14.35Y-8.1
X17.98Y-6.88
X17.98Y-7.18
X3.6Y-6.88
X3.6Y-7.18
X4.21Y-5.47
X4.21Y-5.77
X12.66Y-6.88
X12.66Y-7.18
X7.79Y-10.2
X7.79Y-10.5
X6.31Y-8.85
X6.61Y-8.85
X4.79Y-9.13
X4.79Y-9.43
X10.87Y-4.91
X11.17Y-4.91
X13.97Y-8.38
X13.97Y-8.68
X10.04Y-6.13
X10.04Y-6.43
X6.66Y-6.88
X6.66Y-7.18
X13.04Y-10.2
X13.04Y-10.5
X9.0Y-11.49
X9.0Y-11.79
X11.35Y-7.63
X11.35Y-7.93
X14.33Y-6.61
X14.63Y-6.61
X6.85Y-7.63
X6.85Y-7.93
X17.23Y-6.13
X17.23Y-6.43
X18.95Y-5.47
X18.95Y-5.77
X16.99Y-5.47
X16.99Y-5.77
X17.23Y-7.63
X17.23Y-7.93
X8.69Y-5.42
X8.69Y-5.72
X14.16Y-6.88
X14.16Y-7.18
X18.43Y-9.6
X18.73Y-9.6
X12.29Y-10.95
X12.29Y-11.25
X11.95Y-5.05
X11.95Y-5.35
X17.98Y-7.63
X17.98Y-7.93
X10.41Y-6.88
X10.41Y-7.18
X7.04Y-6.13
X7.04Y-6.43
X2.85Y-7.63
X2.85Y-7.93
X7.73Y-5.58
X8.03Y-5.58
X17.98Y-8.38
X17.98Y-8.68
X9.29Y-10.95
X9.29Y-11.25
X3.6Y-6.13
X3.6Y-6.43
X5.73Y-9.13
X5.73Y-9.43
X5.54Y-6.13
X5.54Y-6.43
X7.83Y-5.7
X8.13Y-5.7
X17.97Y-9.6
X18.27Y-9.6
X13.6Y-7.63
X13.6Y-7.93
X17.23Y-6.88
X17.23Y-7.18
X4.79Y-8.38
X4.79Y-8.68
X9.895Y-4.79
X9.895Y-4.8884
X4.79Y-6.88
X4.79Y-7.18
X5.54Y-10.2
X5.54Y-10.5
X11.54Y-6.13
X11.54Y-6.43
X9.445Y-5.04
X9.445Y-5.64
X9.545Y-5.04
X9.545Y-5.64
X9.645Y-5.04
X9.645Y-5.64
X9.745Y-5.04
X9.745Y-5.64
X9.845Y-5.04
X9.845Y-5.64
X9.945Y-5.04
X9.945Y-5.64
X10.045Y-5.04
X10.045Y-5.64
X10.145Y-5.04
X10.145Y-5.64
X10.245Y-5.04
X10.245Y-5.64
X10.345Y-5.04
X10.345Y-5.64
X10.445Y-5.04
X10.445Y-5.64
X10.545Y-5.04
X10.545Y-5.64
X10.645Y-5.04
X10.645Y-5.64
X10.745Y-5.04
X10.745Y-5.64
X10.845Y-5.04
X10.845Y-5.64
X10.945Y-5.04
X10.945Y-5.64
X11.045Y-5.04
X11.045Y-5.64
X11.145Y-5.04
X11.145Y-5.64
X11.245Y-5.04
X11.245Y-5.64
X11.345Y-5.04
X11.345Y-5.64
X7.97Y-8.38
X7.97Y-8.68
X11.54Y-10.2
X11.54Y-10.5
X10.04Y-10.95
X10.04Y-11.25
X18.43Y-7.35
X18.73Y-7.35
X2.85Y-9.13
X2.85Y-9.43
X6.29Y-6.13
X6.29Y-6.43
X10.98Y-8.38
X10.98Y-8.68
X10.79Y-10.2
X10.79Y-10.5
X6.29Y-10.95
X6.29Y-11.25
X9.29Y-10.2
X9.29Y-10.5
X10.495Y-4.79
X10.495Y-4.8884
X7.41Y-6.88
X7.41Y-7.18
X13.23Y-8.38
X13.23Y-8.68
X6.67Y-9.13
X6.67Y-9.43
X17.32Y-5.43
X17.32Y-5.73
X17.42Y-5.43
X17.42Y-5.73
X17.52Y-5.43
X17.52Y-5.73
X17.62Y-5.43
X17.62Y-5.73
X17.72Y-5.43
X17.72Y-5.73
X17.82Y-5.43
X17.82Y-5.73
X17.92Y-5.43
X17.92Y-5.73
X18.02Y-5.43
X18.02Y-5.73
X18.12Y-5.43
X18.12Y-5.73
X18.22Y-5.43
X18.22Y-5.73
X18.32Y-5.43
X18.32Y-5.73
X18.42Y-5.43
X18.42Y-5.73
X18.52Y-5.43
X18.52Y-5.73
X18.62Y-5.43
X18.62Y-5.73
X16.48Y-9.13
X16.48Y-9.43
X8.54Y-10.95
X8.54Y-11.25
X7.04Y-10.2
X7.04Y-10.5
X8.91Y-5.05
X9.21Y-5.05
X16.48Y-8.38
X16.48Y-8.68
X14.35Y-7.63
X14.35Y-7.93
X8.54Y-10.2
X8.54Y-10.5
X2.25Y-5.47
X2.25Y-5.77
X11.16Y-6.88
X11.16Y-7.18
X6.48Y-8.38
X6.48Y-8.68
X8.54Y-6.13
X8.54Y-6.43
X2.1Y-7.63
X2.1Y-7.93
X2.58Y-5.43
X2.58Y-5.73
X2.68Y-5.43
X2.68Y-5.73
X2.78Y-5.43
X2.78Y-5.73
X2.88Y-5.43
X2.88Y-5.73
X2.98Y-5.43
X2.98Y-5.73
X3.08Y-5.43
X3.08Y-5.73
X3.18Y-5.43
X3.18Y-5.73
X3.28Y-5.43
X3.28Y-5.73
X3.38Y-5.43
X3.38Y-5.73
X3.48Y-5.43
X3.48Y-5.73
X3.58Y-5.43
X3.58Y-5.73
X3.68Y-5.43
X3.68Y-5.73
X3.78Y-5.43
X3.78Y-5.73
X3.88Y-5.43
X3.88Y-5.73
X18.43Y-8.85
X18.73Y-8.85
X8.91Y-6.88
X8.91Y-7.18
X13.79Y-6.13
X13.79Y-6.43
X13.89Y-8.85
X14.19Y-8.85
X2.85Y-6.88
X2.85Y-7.18
X13.41Y-6.88
X13.41Y-7.18
X10.1029Y-4.84
X10.295Y-4.84
X10.22Y-8.38
X10.22Y-8.68
X5.54Y-10.95
X5.54Y-11.25
X2.85Y-8.38
X2.85Y-8.68
X10.345Y-5.77
X10.4434Y-5.77
X8.935Y-5.6
X9.235Y-5.6
X8.35Y-7.63
X8.35Y-7.93
X12.85Y-7.63
X12.85Y-7.93
X16.48Y-6.88
X16.48Y-7.18
X3.6Y-8.38
X3.6Y-8.68
X14.54Y-6.13
X14.54Y-6.43
X16.48Y-7.63
X16.48Y-7.93
X13.79Y-10.95
X13.79Y-11.25
X14.16Y-9.13
X14.16Y-9.43
X10.79Y-6.13
X10.79Y-6.43
X2.85Y-6.13
X2.85Y-6.43
X5.91Y-6.88
X5.91Y-7.18
X2.1Y-8.38
X2.1Y-8.68
X4.79Y-7.63
X4.79Y-7.93
X12.37Y-9.13
X12.37Y-9.43
X18.73Y-6.13
X18.73Y-6.43
X10.595Y-4.91
X10.6934Y-4.91
X2.1Y-6.13
X2.1Y-6.43
X7.6Y-7.63
X7.6Y-7.93
X10.04Y-10.2
X10.04Y-10.5
X11.54Y-10.95
X11.54Y-11.25
X7.22Y-8.38
X7.22Y-8.68
X16.48Y-6.13
X16.48Y-6.43
X10.6Y-7.63
X10.6Y-7.93
X12.29Y-6.13
X12.29Y-6.43
X8.8Y-5.33
X8.8Y-5.63
X2.1Y-6.88
X2.1Y-7.18
X8.935Y-5.34
X9.235Y-5.34
X12.09Y-7.63
X12.09Y-7.93
X4.79Y-6.13
X4.79Y-6.43
T4
X2.36Y-5.51
X2.46Y-5.51
X17.1Y-5.51
X17.2Y-5.51
X11.26Y-4.88
X11.36Y-4.88
X9.11Y-11.75
X9.21Y-11.75
X9.43Y-4.88
X9.53Y-4.88
X18.74Y-5.51
X18.84Y-5.51
X4.0Y-5.51
X4.1Y-5.51
T5
X16.36Y-6.07
X16.36Y-6.17
X16.36Y-6.27
X16.36Y-6.37
X8.52Y-5.3163
X8.52Y-5.71
X16.11Y-6.07
X16.11Y-6.17
X16.11Y-6.27
X16.11Y-6.37
X5.92Y-11.5
X6.02Y-11.5
X6.12Y-11.5
X6.22Y-11.5
X7.93Y-5.45
X8.03Y-5.45
X8.13Y-5.45
X8.23Y-5.45
X1.98Y-6.07
X1.98Y-6.17
X1.98Y-6.27
X1.98Y-6.37
X19.55Y-6.07
X19.55Y-6.17
X19.55Y-6.27
X19.55Y-6.37
X13.85Y-11.5
X13.95Y-11.5
X14.05Y-11.5
X14.15Y-11.5
X4.67Y-6.07
X4.67Y-6.17
X4.67Y-6.27
X4.67Y-6.37
X8.52Y-5.19
X8.62Y-5.19
X8.72Y-5.19
X8.82Y-5.19
X8.92Y-5.19
X9.02Y-5.19
X9.12Y-5.19
X9.22Y-5.19
X4.42Y-6.07
X4.42Y-6.17
X4.42Y-6.27
X4.42Y-6.37
X12.13Y-5.12
X12.13Y-5.22
X12.13Y-5.32
X12.23Y-5.12
X12.23Y-5.22
X12.23Y-5.32
T6
X11.5641Y-5.0628
X11.5641Y-5.24
X11.82Y-5.0628
X11.82Y-5.24
X11.5641Y-5.3928
X11.5641Y-5.57
X11.82Y-5.3928
X11.82Y-5.57
T7
X10.26Y-9.131
X10.51Y-9.031
T8
X11.571Y-7.63
X11.821Y-7.53
X8.01Y-10.2
X8.26Y-10.1
X7.073Y-9.13
X7.323Y-9.03
X14.76Y-6.13
X15.01Y-6.03
X18.2Y-7.63
X18.45Y-7.53
X7.82Y-7.63
X8.07Y-7.53
X5.76Y-10.95
X6.01Y-10.85
X3.07Y-6.13
X3.32Y-6.03
X6.51Y-6.13
X6.76Y-6.03
X9.136Y-6.88
X9.386Y-6.78
X3.82Y-7.63
X4.07Y-7.53
X10.821Y-7.63
X11.071Y-7.53
X11.01Y-10.2
X11.26Y-10.1
X11.76Y-6.13
X12.01Y-6.03
X8.386Y-6.88
X8.636Y-6.78
X17.45Y-8.38
X17.7Y-8.28
X5.198Y-6.88
X5.448Y-6.78
X18.2Y-8.38
X18.45Y-8.28
X18.2Y-6.13
X18.45Y-6.03
X9.51Y-10.2
X9.76Y-10.1
X14.479Y-8.38
X14.729Y-8.28
X8.197Y-8.38
X8.447Y-8.28
X5.478Y-8.38
X5.728Y-8.28
X5.104Y-9.13
X5.354Y-9.03
X3.07Y-9.13
X3.32Y-9.03
X11.1975Y-8.38
X11.4475Y-8.28
X2.32Y-6.88
X2.57Y-6.78
X6.51Y-10.2
X6.76Y-10.1
X15.3225Y-9.1295
X15.5725Y-9.0295
X17.45Y-6.88
X17.7Y-6.78
X15.323Y-6.88
X15.573Y-6.78
X6.135Y-6.88
X6.385Y-6.78
X18.95Y-7.254
X19.2Y-7.154
X12.51Y-10.2
X12.76Y-10.1
X11.76Y-10.2
X12.01Y-10.1
X15.1335Y-6.1306
X15.3835Y-6.0306
X11.01Y-6.13
X11.26Y-6.03
X18.2Y-6.88
X18.45Y-6.78
X8.76Y-10.95
X9.01Y-10.85
X13.4475Y-9.131
X13.6975Y-9.031
X11.9475Y-8.38
X12.1975Y-8.28
X8.01Y-6.13
X8.26Y-6.03
X16.7Y-7.63
X16.95Y-7.53
X12.604Y-9.131
X12.854Y-9.031
X8.76Y-10.2
X9.01Y-10.1
X16.7Y-9.13
X16.95Y-9.03
X2.32Y-6.13
X2.57Y-6.03
X13.0715Y-7.63
X13.3215Y-7.53
X6.885Y-6.88
X7.135Y-6.78
X5.104Y-8.3805
X5.354Y-8.2805
X9.3205Y-7.6305
X9.5705Y-7.5305
X10.26Y-10.95
X10.51Y-10.85
X17.0755Y-9.1296
X17.3255Y-9.0296
X6.136Y-9.131
X6.386Y-9.031
X10.26Y-6.13
X10.51Y-6.03
X10.636Y-6.88
X10.886Y-6.78
X6.979Y-9.131
X7.229Y-9.031
X11.386Y-6.88
X11.636Y-6.78
X5.01Y-6.13
X5.26Y-6.03
X18.95Y-9.13
X19.2Y-9.03
X13.26Y-6.13
X13.51Y-6.03
X7.4465Y-8.38
X7.6965Y-8.28
X12.886Y-6.88
X13.136Y-6.78
X16.7Y-8.38
X16.95Y-8.28
X9.792Y-9.131
X10.042Y-9.031
X10.26Y-10.2
X10.51Y-10.1
X18.95Y-8.38
X19.2Y-8.28
X15.229Y-8.381
X15.479Y-8.281
X8.5695Y-7.63
X8.8195Y-7.53
X2.32Y-7.63
X2.57Y-7.53
X18.95Y-6.88
X19.2Y-6.78
X17.45Y-6.13
X17.7Y-6.03
X12.51Y-10.95
X12.76Y-10.85
X14.573Y-7.63
X14.823Y-7.53
X15.416Y-9.1295
X15.666Y-9.0295
X3.82Y-6.88
X4.07Y-6.78
X11.76Y-10.95
X12.01Y-10.85
X3.07Y-7.63
X3.32Y-7.53
X13.5425Y-9.131
X13.7925Y-9.031
X15.4165Y-7.255
X15.6665Y-7.155
X3.82Y-9.13
X4.07Y-9.03
X5.291Y-7.63
X5.541Y-7.53
X15.51Y-6.13
X15.76Y-6.03
X12.136Y-6.88
X12.386Y-6.78
X2.32Y-8.38
X2.57Y-8.28
X7.26Y-10.2
X7.51Y-10.1
X5.948Y-8.38
X6.198Y-8.28
X8.76Y-6.13
X9.01Y-6.03
X16.7Y-6.88
X16.95Y-6.78
X14.01Y-10.95
X14.26Y-10.85
X13.822Y-7.63
X14.072Y-7.53
X14.386Y-6.88
X14.636Y-6.78
X18.95Y-6.13
X19.2Y-6.03
X12.321Y-7.63
X12.571Y-7.53
X6.51Y-10.95
X6.76Y-10.85
X9.51Y-6.13
X9.76Y-6.03
X8.947Y-8.38
X9.197Y-8.28
X2.32Y-9.13
X2.57Y-9.03
X7.636Y-6.88
X7.886Y-6.78
X11.01Y-10.95
X11.26Y-10.85
X14.3855Y-9.1305
X14.6355Y-9.0305
X14.01Y-6.13
X14.26Y-6.03
X7.071Y-7.63
X7.321Y-7.53
X3.07Y-8.38
X3.32Y-8.28
X9.6975Y-8.38
X9.9475Y-8.28
X7.26Y-6.13
X7.51Y-6.03
X9.886Y-6.88
X10.136Y-6.78
X17.45Y-7.63
X17.7Y-7.53
X6.322Y-7.63
X6.572Y-7.53
X18.9496Y-8.7545
X19.1996Y-8.6545
X17.45Y-9.13
X17.7Y-9.03
X3.82Y-6.13
X4.07Y-6.03
X14.854Y-8.381
X15.104Y-8.281
X3.82Y-8.38
X4.07Y-8.28
X18.2Y-9.13
X18.45Y-9.03
X16.7Y-6.13
X16.95Y-6.03
X9.51Y-10.95
X9.76Y-10.85
X14.197Y-8.38
X14.447Y-8.28
X10.071Y-7.6305
X10.321Y-7.5305
X3.07Y-6.88
X3.32Y-6.78
X5.76Y-10.2
X6.01Y-10.1
X6.042Y-9.13
X6.292Y-9.03
X15.0415Y-7.6301
X15.2915Y-7.5301
X14.01Y-10.2
X14.26Y-10.1
X8.01Y-10.95
X8.26Y-10.85
X15.51Y-8.38
X15.76Y-8.28
X13.636Y-6.88
X13.886Y-6.78
X13.26Y-10.2
X13.51Y-10.1
X13.26Y-10.95
X13.51Y-10.85
X5.1975Y-9.13
X5.4475Y-9.03
X13.4475Y-8.3805
X13.6975Y-8.2805
X12.51Y-6.13
X12.76Y-6.03
X10.4475Y-8.3805
X10.6975Y-8.2805
X18.95Y-7.63
X19.2Y-7.53
X7.26Y-10.95
X7.51Y-10.85
X12.6975Y-8.3805
X12.9475Y-8.2805
X5.76Y-6.13
X6.01Y-6.03
X6.6975Y-8.38
X6.9475Y-8.28
X14.479Y-9.13
X14.729Y-9.03
T9
X5.53Y-10.68
X11.29Y-9.19
X8.73Y-9.28
X17.23Y-8.11
X16.0Y-8.93
X2.02Y-9.57
X4.9Y-6.71
X2.87Y-8.13
X11.15Y-11.81
X8.54Y-10.68
X19.11Y-9.53
X16.63Y-5.57
X19.35Y-5.56
X17.97Y-7.39
X2.04Y-5.78
X10.045Y-9.9
X11.54Y-10.68
X9.09Y-8.09
X4.4Y-5.45
X12.78Y-5.42
X4.225Y-9.7
X9.65Y-6.7
X16.425Y-9.705
X6.33Y-5.55
X4.89Y-9.61
X14.54Y-10.68
T0
M30
