G04 #@! TF.GenerationSoftware,KiCad,Pcbnew,(5.1.4)-1*
G04 #@! TF.CreationDate,2020-01-13T09:00:57+01:00*
G04 #@! TF.ProjectId,svarog-keyboard,73766172-6f67-42d6-9b65-79626f617264,rev?*
G04 #@! TF.SameCoordinates,Original*
G04 #@! TF.FileFunction,Profile,NP*
%FSLAX46Y46*%
G04 Gerber Fmt 4.6, Leading zero omitted, Abs format (unit mm)*
G04 Created by KiCad (PCBNEW (5.1.4)-1) date 2020-01-13 09:00:57*
%MOMM*%
%LPD*%
G04 APERTURE LIST*
%ADD10C,0.050000*%
G04 APERTURE END LIST*
D10*
X411581600Y-240792000D02*
X411607000Y-159385000D01*
X413131000Y-159385000D02*
X413156400Y-240792000D01*
X411607000Y-159385000D02*
X413131000Y-159385000D01*
X413156400Y-240792000D02*
X411581600Y-240792000D01*
X116205000Y-159639000D02*
X116205000Y-240030000D01*
X114681000Y-159639000D02*
X116205000Y-159639000D01*
X114681000Y-240030000D02*
X114681000Y-159639000D01*
X116205000Y-240030000D02*
X114681000Y-240030000D01*
X332105000Y-248031000D02*
X196850000Y-248031000D01*
X332105000Y-251333000D02*
X332105000Y-248031000D01*
X196850000Y-251333000D02*
X332105000Y-251333000D01*
X196850000Y-248031000D02*
X196850000Y-251333000D01*
X114681000Y-246507000D02*
X114681000Y-241427000D01*
X47879000Y-246507000D02*
X114681000Y-246507000D01*
X47879000Y-134493000D02*
X47879000Y-246507000D01*
X114681000Y-134493000D02*
X47879000Y-134493000D01*
X114681000Y-156591000D02*
X114681000Y-134493000D01*
X116205000Y-156591000D02*
X114681000Y-156591000D01*
X116205000Y-134493000D02*
X116205000Y-156591000D01*
X192913000Y-134493000D02*
X116205000Y-134493000D01*
X192913000Y-116713000D02*
X192913000Y-134493000D01*
X335407000Y-116713000D02*
X192913000Y-116713000D01*
X335407000Y-134493000D02*
X335407000Y-116713000D01*
X411607000Y-134493000D02*
X335407000Y-134493000D01*
X411607000Y-156591000D02*
X411607000Y-134493000D01*
X413131000Y-156591000D02*
X411607000Y-156591000D01*
X413131000Y-134493000D02*
X413131000Y-156591000D01*
X498983000Y-134493000D02*
X413131000Y-134493000D01*
X498983000Y-246507000D02*
X498983000Y-134493000D01*
X413131000Y-246507000D02*
X498983000Y-246507000D01*
X413131000Y-241427000D02*
X413131000Y-246507000D01*
X411607000Y-241427000D02*
X413131000Y-241427000D01*
X411607000Y-247904000D02*
X411607000Y-241427000D01*
X411607000Y-248031000D02*
X411607000Y-247904000D01*
X333629000Y-248031000D02*
X411607000Y-248031000D01*
X333629000Y-251333000D02*
X333629000Y-248031000D01*
X373507000Y-251333000D02*
X333629000Y-251333000D01*
X373507000Y-294767000D02*
X373507000Y-251333000D01*
X289687000Y-294767000D02*
X373507000Y-294767000D01*
X289687000Y-304927000D02*
X289687000Y-294767000D01*
X220853000Y-304927000D02*
X289687000Y-304927000D01*
X220853000Y-294767000D02*
X220853000Y-304927000D01*
X137033000Y-294767000D02*
X220853000Y-294767000D01*
X137033000Y-251333000D02*
X137033000Y-294767000D01*
X195453000Y-251333000D02*
X137033000Y-251333000D01*
X195453000Y-248031000D02*
X195453000Y-251333000D01*
X116205000Y-248031000D02*
X195453000Y-248031000D01*
X116205000Y-241427000D02*
X116205000Y-248031000D01*
X114681000Y-241427000D02*
X116205000Y-241427000D01*
M02*
