M48
INCH
T1C0.0669
T2C0.0689
T3C0.1200
T4C0.1201
T5C0.1570
T6C0.1575
%
G90
G05
T1
X17.4Y-6.98
X17.8Y-6.98
X15.273Y-6.98
X15.673Y-6.98
X6.085Y-6.98
X6.485Y-6.98
X18.9Y-7.354
X19.3Y-7.354
X12.46Y-10.3
X12.86Y-10.3
X11.71Y-10.3
X12.11Y-10.3
X15.0835Y-6.2306
X15.4835Y-6.2306
X10.96Y-6.23
X11.36Y-6.23
X18.15Y-6.98
X18.55Y-6.98
X8.71Y-11.05
X9.11Y-11.05
X13.3975Y-9.231
X13.7975Y-9.231
X11.8975Y-8.48
X12.2975Y-8.48
X7.96Y-6.23
X8.36Y-6.23
X16.65Y-7.73
X17.05Y-7.73
X12.554Y-9.231
X12.954Y-9.231
X8.71Y-10.3
X9.11Y-10.3
X16.65Y-9.23
X17.05Y-9.23
X2.27Y-6.23
X2.67Y-6.23
X13.0215Y-7.73
X13.4215Y-7.73
X6.835Y-6.98
X7.235Y-6.98
X5.054Y-8.4805
X5.454Y-8.4805
X9.2705Y-7.7305
X9.6705Y-7.7305
X10.21Y-11.05
X10.61Y-11.05
X17.0255Y-9.2296
X17.4255Y-9.2296
X6.086Y-9.231
X6.486Y-9.231
X10.21Y-6.23
X10.61Y-6.23
X10.586Y-6.98
X10.986Y-6.98
X6.929Y-9.231
X7.329Y-9.231
X11.336Y-6.98
X11.736Y-6.98
X4.96Y-6.23
X5.36Y-6.23
X18.9Y-9.23
X19.3Y-9.23
X13.21Y-6.23
X13.61Y-6.23
X7.3965Y-8.48
X7.7965Y-8.48
X12.836Y-6.98
X13.236Y-6.98
X16.65Y-8.48
X17.05Y-8.48
X9.742Y-9.231
X10.142Y-9.231
X10.21Y-10.3
X10.61Y-10.3
X18.9Y-8.48
X19.3Y-8.48
X15.179Y-8.481
X15.579Y-8.481
X8.5195Y-7.73
X8.9195Y-7.73
X2.27Y-7.73
X2.67Y-7.73
X18.9Y-6.98
X19.3Y-6.98
X17.4Y-6.23
X17.8Y-6.23
X12.46Y-11.05
X12.86Y-11.05
X14.523Y-7.73
X14.923Y-7.73
X15.366Y-9.2295
X15.766Y-9.2295
X3.77Y-6.98
X4.17Y-6.98
X11.71Y-11.05
X12.11Y-11.05
X3.02Y-7.73
X3.42Y-7.73
X13.4925Y-9.231
X13.8925Y-9.231
X15.3665Y-7.355
X15.7665Y-7.355
X3.77Y-9.23
X4.17Y-9.23
X5.241Y-7.73
X5.641Y-7.73
X15.46Y-6.23
X15.86Y-6.23
X12.086Y-6.98
X12.486Y-6.98
X2.27Y-8.48
X2.67Y-8.48
X7.21Y-10.3
X7.61Y-10.3
X5.898Y-8.48
X6.298Y-8.48
X8.71Y-6.23
X9.11Y-6.23
X16.65Y-6.98
X17.05Y-6.98
X13.96Y-11.05
X14.36Y-11.05
X13.772Y-7.73
X14.172Y-7.73
X14.336Y-6.98
X14.736Y-6.98
X18.9Y-6.23
X19.3Y-6.23
X12.271Y-7.73
X12.671Y-7.73
X6.46Y-11.05
X6.86Y-11.05
X9.46Y-6.23
X9.86Y-6.23
X8.897Y-8.48
X9.297Y-8.48
X2.27Y-9.23
X2.67Y-9.23
X7.586Y-6.98
X7.986Y-6.98
X10.96Y-11.05
X11.36Y-11.05
X14.3355Y-9.2305
X14.7355Y-9.2305
X13.96Y-6.23
X14.36Y-6.23
X7.021Y-7.73
X7.421Y-7.73
X3.02Y-8.48
X3.42Y-8.48
X9.6475Y-8.48
X10.0475Y-8.48
X7.21Y-6.23
X7.61Y-6.23
X9.836Y-6.98
X10.236Y-6.98
X17.4Y-7.73
X17.8Y-7.73
X6.272Y-7.73
X6.672Y-7.73
X18.8996Y-8.8545
X19.2996Y-8.8545
X17.4Y-9.23
X17.8Y-9.23
X3.77Y-6.23
X4.17Y-6.23
X14.804Y-8.481
X15.204Y-8.481
X3.77Y-8.48
X4.17Y-8.48
X18.15Y-9.23
X18.55Y-9.23
X16.65Y-6.23
X17.05Y-6.23
X9.46Y-11.05
X9.86Y-11.05
X14.147Y-8.48
X14.547Y-8.48
X10.021Y-7.7305
X10.421Y-7.7305
X3.02Y-6.98
X3.42Y-6.98
X5.71Y-10.3
X6.11Y-10.3
X5.992Y-9.23
X6.392Y-9.23
X14.9915Y-7.7301
X15.3915Y-7.7301
X13.96Y-10.3
X14.36Y-10.3
X7.96Y-11.05
X8.36Y-11.05
X15.46Y-8.48
X15.86Y-8.48
X13.586Y-6.98
X13.986Y-6.98
X13.21Y-10.3
X13.61Y-10.3
X13.21Y-11.05
X13.61Y-11.05
X5.1475Y-9.23
X5.5475Y-9.23
X13.3975Y-8.4805
X13.7975Y-8.4805
X12.46Y-6.23
X12.86Y-6.23
X10.3975Y-8.4805
X10.7975Y-8.4805
X18.9Y-7.73
X19.3Y-7.73
X7.21Y-11.05
X7.61Y-11.05
X12.6475Y-8.4805
X13.0475Y-8.4805
X5.71Y-6.23
X6.11Y-6.23
X6.6475Y-8.48
X7.0475Y-8.48
X14.429Y-9.23
X14.829Y-9.23
X11.521Y-7.73
X11.921Y-7.73
X7.96Y-10.3
X8.36Y-10.3
X7.023Y-9.23
X7.423Y-9.23
X14.71Y-6.23
X15.11Y-6.23
X18.15Y-7.73
X18.55Y-7.73
X7.77Y-7.73
X8.17Y-7.73
X5.71Y-11.05
X6.11Y-11.05
X3.02Y-6.23
X3.42Y-6.23
X6.46Y-6.23
X6.86Y-6.23
X9.086Y-6.98
X9.486Y-6.98
X3.77Y-7.73
X4.17Y-7.73
X10.771Y-7.73
X11.171Y-7.73
X10.96Y-10.3
X11.36Y-10.3
X11.71Y-6.23
X12.11Y-6.23
X8.336Y-6.98
X8.736Y-6.98
X17.4Y-8.48
X17.8Y-8.48
X5.148Y-6.98
X5.548Y-6.98
X18.15Y-8.48
X18.55Y-8.48
X18.15Y-6.23
X18.55Y-6.23
X9.46Y-10.3
X9.86Y-10.3
X14.429Y-8.48
X14.829Y-8.48
X8.147Y-8.48
X8.547Y-8.48
X5.428Y-8.48
X5.828Y-8.48
X5.054Y-9.23
X5.454Y-9.23
X3.02Y-9.23
X3.42Y-9.23
X11.1475Y-8.48
X11.5475Y-8.48
X2.27Y-6.98
X2.67Y-6.98
X6.46Y-10.3
X6.86Y-10.3
X15.2725Y-9.2295
X15.6725Y-9.2295
T2
X10.21Y-9.231
X10.61Y-9.231
T3
X8.16Y-8.956
X12.66Y-8.956
T4
X5.1595Y-8.2044
X6.0965Y-8.2044
X18.8244Y-6.8855
X18.8244Y-7.8225
X14.815Y-5.955
X15.752Y-5.955
X16.757Y-8.954
X17.694Y-8.954
X7.9735Y-8.9554
X11.9105Y-8.9554
X15.2909Y-6.8865
X15.2909Y-7.8235
X18.824Y-8.386
X18.824Y-9.323
X14.5355Y-8.2054
X15.4725Y-8.2054
X14.723Y-7.4545
X15.66Y-7.4545
T5
X8.16Y-9.556
X10.41Y-9.231
X12.66Y-9.556
T6
X15.473Y-6.98
X6.285Y-6.98
X19.1Y-7.354
X19.4244Y-6.8855
X19.4244Y-7.8225
X12.66Y-10.3
X11.91Y-10.3
X14.815Y-6.555
X15.2835Y-6.2306
X15.752Y-6.555
X11.16Y-6.23
X18.35Y-6.98
X8.91Y-11.05
X13.5975Y-9.231
X12.0975Y-8.48
X8.16Y-6.23
X16.85Y-7.73
X12.754Y-9.231
X8.91Y-10.3
X16.85Y-9.23
X2.47Y-6.23
X13.2215Y-7.73
X7.035Y-6.98
X5.254Y-8.4805
X9.4705Y-7.7305
X10.41Y-11.05
X16.757Y-9.554
X17.2255Y-9.2296
X17.694Y-9.554
X6.286Y-9.231
X10.41Y-6.23
X10.786Y-6.98
X7.129Y-9.231
X11.536Y-6.98
X5.16Y-6.23
X19.1Y-9.23
X13.41Y-6.23
X7.5965Y-8.48
X13.036Y-6.98
X16.85Y-8.48
X7.9735Y-9.5554
X9.942Y-9.231
X11.9105Y-9.5554
X10.41Y-10.3
X19.1Y-8.48
X15.379Y-8.481
X8.7195Y-7.73
X2.47Y-7.73
X19.1Y-6.98
X17.6Y-6.23
X12.66Y-11.05
X14.723Y-7.73
X15.566Y-9.2295
X3.97Y-6.98
X11.91Y-11.05
X3.22Y-7.73
X13.6925Y-9.231
X15.5665Y-7.355
X15.8909Y-6.8865
X15.8909Y-7.8235
X3.97Y-9.23
X5.441Y-7.73
X15.66Y-6.23
X12.286Y-6.98
X2.47Y-8.48
X7.41Y-10.3
X6.098Y-8.48
X8.91Y-6.23
X16.85Y-6.98
X14.16Y-11.05
X13.972Y-7.73
X14.536Y-6.98
X19.1Y-6.23
X12.471Y-7.73
X6.66Y-11.05
X9.66Y-6.23
X9.097Y-8.48
X2.47Y-9.23
X7.786Y-6.98
X11.16Y-11.05
X14.5355Y-9.2305
X14.16Y-6.23
X7.221Y-7.73
X3.22Y-8.48
X9.8475Y-8.48
X7.41Y-6.23
X10.036Y-6.98
X17.6Y-7.73
X6.472Y-7.73
X19.0996Y-8.8545
X19.424Y-8.386
X19.424Y-9.323
X17.6Y-9.23
X3.97Y-6.23
X14.5355Y-8.8054
X15.004Y-8.481
X15.4725Y-8.8054
X3.97Y-8.48
X18.35Y-9.23
X16.85Y-6.23
X9.66Y-11.05
X14.347Y-8.48
X10.221Y-7.7305
X3.22Y-6.98
X5.91Y-10.3
X6.192Y-9.23
X14.723Y-8.0545
X15.1915Y-7.7301
X15.66Y-8.0545
X14.16Y-10.3
X8.16Y-11.05
X15.66Y-8.48
X13.786Y-6.98
X13.41Y-10.3
X13.41Y-11.05
X5.3475Y-9.23
X13.5975Y-8.4805
X12.66Y-6.23
X10.5975Y-8.4805
X19.1Y-7.73
X7.41Y-11.05
X12.8475Y-8.4805
X5.91Y-6.23
X6.8475Y-8.48
X14.629Y-9.23
X11.721Y-7.73
X8.16Y-10.3
X7.223Y-9.23
X14.91Y-6.23
X18.35Y-7.73
X7.97Y-7.73
X5.91Y-11.05
X3.22Y-6.23
X6.66Y-6.23
X9.286Y-6.98
X3.97Y-7.73
X10.971Y-7.73
X11.16Y-10.3
X11.91Y-6.23
X8.536Y-6.98
X17.6Y-8.48
X5.348Y-6.98
X18.35Y-8.48
X18.35Y-6.23
X9.66Y-10.3
X14.629Y-8.48
X8.347Y-8.48
X5.1595Y-8.8044
X5.628Y-8.48
X6.0965Y-8.8044
X5.254Y-9.23
X3.22Y-9.23
X11.3475Y-8.48
X2.47Y-6.98
X6.66Y-10.3
X15.4725Y-9.2295
X17.6Y-6.98
T0
M30
