M48
; DRILL file {KiCad (5.1.4)-1} date 1/13/2020 9:02:38 AM
; FORMAT={2:4/ absolute / inch / suppress leading zeros}
; #@! TF.CreationDate,2020-01-13T09:02:38+01:00
; #@! TF.GenerationSoftware,Kicad,Pcbnew,(5.1.4)-1
FMAT,2
INCH,TZ
T1C0.0157
T2C0.0236
T3C0.0315
T4C0.0354
T5C0.0394
T6C0.0433
T7C0.0579
T8C0.0591
T9C0.1260
T10C0.0669
T11C0.0689
T12C0.1200
T13C0.1201
T14C0.1570
T15C0.1575
%
G90
G05
T1
X26400Y-59600
X27200Y-63100
X27643Y-63857
X28400Y-59600
X29950Y-58700
X31800Y-58900
X33700Y-63000
X34600Y-70900
X34800Y-63000
X35200Y-63000
X37250Y-66950
X38900Y-59100
X49700Y-63900
X49900Y-64800
X49900Y-65300
X49900Y-65800
X65500Y-65600
X67300Y-63800
X85200Y-54900
X85200Y-56000
X88600Y-56000
X90700Y-56000
X93200Y-54100
X95800Y-116500
X98900Y-117200
X100000Y-53300
X104000Y-52900
X104850Y-113350
X106450Y-52450
X107450Y-52250
X108450Y-52050
X111400Y-54050
X112300Y-112900
X118600Y-56500
X119800Y-112900
X127400Y-112900
X134900Y-112900
X142400Y-113000
X143950Y-73200
X145950Y-62350
X156200Y-68600
X156400Y-66800
X156750Y-68950
X171000Y-63400
X171043Y-63857
X174150Y-55250
X177900Y-56500
X179750Y-56050
X182150Y-55800
X184800Y-65400
X185037Y-78663
X185500Y-65400
T2
X82709Y-57200
X83300Y-57200
T3
X143500Y-76300
X143500Y-79300
X102200Y-83800
X102200Y-86800
X55400Y-102000
X55400Y-105000
X76000Y-76300
X76000Y-79300
X89100Y-50500
X92100Y-50500
X164800Y-83800
X164800Y-86800
X134100Y-68800
X134100Y-71800
X120900Y-76300
X120900Y-79300
X107900Y-102000
X107900Y-105000
X119100Y-68800
X119100Y-71800
X22500Y-54700
X22500Y-57700
X66700Y-91300
X66700Y-94300
X107900Y-61300
X107900Y-64300
X139700Y-83800
X139700Y-86800
X100400Y-102000
X100400Y-105000
X64800Y-83800
X64800Y-86800
X21000Y-68800
X21000Y-71800
X77900Y-61300
X77900Y-64300
X179700Y-96000
X182700Y-96000
X189500Y-54700
X189500Y-57700
X21000Y-91300
X21000Y-94300
X77900Y-109500
X77900Y-112500
X93200Y-47700
X93200Y-50700
X179800Y-91300
X179800Y-94300
X179800Y-76300
X179800Y-79300
X104950Y-47900
X104950Y-48884
X96600Y-68800
X96600Y-71800
X141600Y-91300
X141600Y-94300
X47900Y-83800
X47900Y-86800
X141600Y-68800
X141600Y-71800
X89350Y-53400
X92350Y-53400
X47900Y-91300
X47900Y-94300
X88000Y-53300
X88000Y-56300
X36000Y-68800
X36000Y-71800
X149600Y-68800
X149600Y-71800
X21000Y-61300
X21000Y-64300
X164800Y-61300
X164800Y-64300
X126600Y-68800
X126600Y-71800
X21000Y-83800
X21000Y-86800
X140500Y-81000
X143500Y-81000
X184300Y-96000
X187300Y-96000
X85400Y-109500
X85400Y-112500
X106000Y-76300
X106000Y-79300
X130400Y-102000
X130400Y-105000
X137900Y-109500
X137900Y-112500
X25800Y-54300
X25800Y-57300
X26800Y-54300
X26800Y-57300
X27800Y-54300
X27800Y-57300
X28800Y-54300
X28800Y-57300
X29800Y-54300
X29800Y-57300
X30800Y-54300
X30800Y-57300
X31800Y-54300
X31800Y-57300
X32800Y-54300
X32800Y-57300
X33800Y-54300
X33800Y-57300
X34800Y-54300
X34800Y-57300
X35800Y-54300
X35800Y-57300
X36800Y-54300
X36800Y-57300
X37800Y-54300
X37800Y-57300
X38800Y-54300
X38800Y-57300
X122900Y-102000
X122900Y-105000
X86900Y-54200
X86900Y-57200
X57300Y-91300
X57300Y-94300
X115400Y-102000
X115400Y-105000
X94450Y-50400
X94450Y-56400
X95450Y-50400
X95450Y-56400
X96450Y-50400
X96450Y-56400
X97450Y-50400
X97450Y-56400
X98450Y-50400
X98450Y-56400
X99450Y-50400
X99450Y-56400
X100450Y-50400
X100450Y-56400
X101450Y-50400
X101450Y-56400
X102450Y-50400
X102450Y-56400
X103450Y-50400
X103450Y-56400
X104450Y-50400
X104450Y-56400
X105450Y-50400
X105450Y-56400
X106450Y-50400
X106450Y-56400
X107450Y-50400
X107450Y-56400
X108450Y-50400
X108450Y-56400
X109450Y-50400
X109450Y-56400
X110450Y-50400
X110450Y-56400
X111450Y-50400
X111450Y-56400
X112450Y-50400
X112450Y-56400
X113450Y-50400
X113450Y-56400
X28500Y-61300
X28500Y-64300
X92900Y-61300
X92900Y-64300
X98500Y-76300
X98500Y-79300
X90000Y-114900
X90000Y-117900
X164800Y-68800
X164800Y-71800
X132300Y-83800
X132300Y-86800
X72200Y-83800
X72200Y-86800
X92900Y-109500
X92900Y-112500
X79700Y-83800
X79700Y-86800
X77300Y-55800
X80300Y-55800
X36000Y-91300
X36000Y-94300
X122900Y-61300
X122900Y-64300
X95400Y-91300
X95400Y-94300
X70400Y-102000
X70400Y-105000
X59100Y-68800
X59100Y-71800
X172300Y-68800
X172300Y-71800
X100400Y-61300
X100400Y-64300
X150900Y-91300
X150900Y-94300
X173200Y-54300
X173200Y-57300
X174200Y-54300
X174200Y-57300
X175200Y-54300
X175200Y-57300
X176200Y-54300
X176200Y-57300
X177200Y-54300
X177200Y-57300
X178200Y-54300
X178200Y-57300
X179200Y-54300
X179200Y-57300
X180200Y-54300
X180200Y-57300
X181200Y-54300
X181200Y-57300
X182200Y-54300
X182200Y-57300
X183200Y-54300
X183200Y-57300
X184200Y-54300
X184200Y-57300
X185200Y-54300
X185200Y-57300
X186200Y-54300
X186200Y-57300
X63100Y-88500
X66100Y-88500
X89100Y-49300
X92100Y-49300
X184300Y-88500
X187300Y-88500
X70400Y-61300
X70400Y-64300
X91000Y-76300
X91000Y-79300
X108700Y-49100
X111700Y-49100
X36000Y-83800
X36000Y-86800
X124700Y-83800
X124700Y-86800
X184300Y-73500
X187300Y-73500
X98950Y-47900
X98950Y-48884
X104100Y-68800
X104100Y-71800
X172300Y-83800
X172300Y-86800
X137900Y-61300
X137900Y-64300
X36000Y-76300
X36000Y-79300
X28500Y-68800
X28500Y-71800
X130400Y-61300
X130400Y-64300
X47900Y-61300
X47900Y-64300
X66600Y-68800
X66600Y-71800
X137900Y-102000
X137900Y-105000
X55400Y-109500
X55400Y-112500
X62900Y-109500
X62900Y-112500
X105950Y-49100
X106934Y-49100
X87200Y-83800
X87200Y-86800
X179800Y-61300
X179800Y-64300
X47900Y-76300
X47900Y-79300
X42100Y-54700
X42100Y-57700
X93900Y-115300
X93900Y-118300
X94900Y-115300
X94900Y-118300
X95900Y-115300
X95900Y-118300
X96900Y-115300
X96900Y-118300
X97900Y-115300
X97900Y-118300
X98900Y-115300
X98900Y-118300
X99900Y-115300
X99900Y-118300
X100900Y-115300
X100900Y-118300
X101900Y-115300
X101900Y-118300
X102900Y-115300
X102900Y-118300
X103900Y-115300
X103900Y-118300
X104900Y-115300
X104900Y-118300
X105900Y-115300
X105900Y-118300
X106900Y-115300
X106900Y-118300
X92900Y-102000
X92900Y-105000
X55400Y-61300
X55400Y-64300
X81600Y-68800
X81600Y-71800
X179800Y-83800
X179800Y-86800
X62900Y-102000
X62900Y-105000
X85400Y-102000
X85400Y-105000
X83500Y-76300
X83500Y-79300
X119500Y-50500
X119500Y-53500
X164800Y-91300
X164800Y-94300
X128500Y-76300
X128500Y-79300
X47900Y-68800
X47900Y-71800
X115400Y-109500
X115400Y-112500
X61000Y-76300
X61000Y-79300
X78300Y-57000
X81300Y-57000
X28500Y-83800
X28500Y-86800
X115400Y-61300
X115400Y-64300
X94700Y-83800
X94700Y-86800
X107900Y-109400
X107900Y-112400
X74100Y-68800
X74100Y-71800
X132200Y-91300
X132200Y-94300
X85400Y-61300
X85400Y-64300
X123700Y-91300
X123700Y-94300
X130400Y-109500
X130400Y-112500
X169900Y-54700
X169900Y-57700
X138900Y-88500
X141900Y-88500
X172300Y-76300
X172300Y-79300
X103450Y-57700
X104434Y-57700
X21000Y-76300
X21000Y-79300
X117200Y-83800
X117200Y-86800
X89350Y-54700
X92350Y-54700
X179800Y-68800
X179800Y-71800
X111600Y-68800
X111600Y-71800
X184300Y-81000
X187300Y-81000
X145400Y-61300
X145400Y-64300
X36000Y-61300
X36000Y-64300
X187300Y-61300
X187300Y-64300
X89100Y-68800
X89100Y-71800
X28500Y-76300
X28500Y-79300
X100400Y-109500
X100400Y-112500
X122900Y-109500
X122900Y-112500
X62900Y-61300
X62900Y-64300
X113500Y-76300
X113500Y-79300
X28500Y-91300
X28500Y-94300
X77900Y-102000
X77900Y-105000
X101029Y-48400
X102950Y-48400
X136000Y-76300
X136000Y-79300
X68500Y-76300
X68500Y-79300
X172300Y-61300
X172300Y-64300
X70400Y-109500
X70400Y-112500
X143300Y-66100
X146300Y-66100
X109800Y-83800
X109800Y-86800
X89350Y-56000
X92350Y-56000
X164800Y-76300
X164800Y-79300
T4
X112600Y-48800
X113600Y-48800
X23600Y-55100
X24600Y-55100
X171000Y-55100
X172000Y-55100
X94300Y-48800
X95300Y-48800
X91100Y-117500
X92100Y-117500
X187400Y-55100
X188400Y-55100
X40000Y-55100
X41000Y-55100
T5
X79300Y-54500
X80300Y-54500
X81300Y-54500
X82300Y-54500
X59200Y-115000
X60200Y-115000
X61200Y-115000
X62200Y-115000
X161100Y-60700
X161100Y-61700
X161100Y-62700
X161100Y-63700
X46700Y-60700
X46700Y-61700
X46700Y-62700
X46700Y-63700
X85200Y-51900
X86200Y-51900
X87200Y-51900
X88200Y-51900
X89200Y-51900
X90200Y-51900
X91200Y-51900
X92200Y-51900
X85200Y-53163
X85200Y-57100
X138500Y-115000
X139500Y-115000
X140500Y-115000
X141500Y-115000
X195500Y-60700
X195500Y-61700
X195500Y-62700
X195500Y-63700
X121300Y-51200
X121300Y-52200
X121300Y-53200
X122300Y-51200
X122300Y-52200
X122300Y-53200
X44200Y-60700
X44200Y-61700
X44200Y-62700
X44200Y-63700
X19800Y-60700
X19800Y-61700
X19800Y-62700
X19800Y-63700
X163600Y-60700
X163600Y-61700
X163600Y-62700
X163600Y-63700
T6
X115641Y-53928
X115641Y-55700
X118200Y-53928
X118200Y-55700
X115641Y-50628
X115641Y-52400
X118200Y-50628
X118200Y-52400
T7
X102600Y-91310
X105100Y-90310
T8
X147600Y-61300
X150100Y-60300
X189500Y-91300
X192000Y-90300
X108210Y-76300
X110710Y-75300
X80100Y-109500
X82600Y-108500
X174500Y-91300
X177000Y-90300
X140100Y-61300
X142600Y-60300
X51975Y-91300
X54475Y-90300
X65100Y-109500
X67600Y-108500
X167000Y-83800
X169500Y-82800
X52910Y-76300
X55410Y-75300
X121360Y-68800
X123860Y-67800
X128860Y-68800
X131360Y-67800
X95100Y-109500
X97600Y-108500
X81970Y-83800
X84470Y-82800
X150415Y-76301
X152915Y-75301
X23200Y-61300
X25700Y-60300
X68850Y-68800
X71350Y-67800
X110100Y-61300
X112600Y-60300
X155100Y-83800
X157600Y-82800
X132600Y-109500
X135100Y-108500
X174500Y-83800
X177000Y-82800
X59480Y-83800
X61980Y-82800
X140100Y-102000
X142600Y-101000
X182000Y-91300
X184500Y-90300
X91360Y-68800
X93860Y-67800
X65100Y-61300
X67600Y-60300
X140100Y-109500
X142600Y-108500
X38200Y-91300
X40700Y-90300
X155100Y-61300
X157600Y-60300
X65100Y-102000
X67600Y-101000
X182000Y-83800
X184500Y-82800
X104475Y-83805
X106975Y-82805
X102600Y-61300
X105100Y-60300
X97920Y-91310
X100420Y-90310
X23200Y-68800
X25700Y-67800
X189500Y-72540
X192000Y-71540
X38200Y-83800
X40700Y-82800
X100710Y-76305
X103210Y-75305
X38200Y-76300
X40700Y-75300
X167000Y-76300
X169500Y-75300
X23200Y-91300
X25700Y-90300
X96975Y-83800
X99475Y-82800
X125100Y-109500
X127600Y-108500
X174500Y-68800
X177000Y-67800
X153225Y-91295
X155725Y-90295
X117600Y-109500
X120100Y-108500
X76360Y-68800
X78860Y-67800
X38200Y-61300
X40700Y-60300
X143855Y-91305
X146355Y-90305
X115710Y-76300
X118210Y-75300
X72600Y-109500
X75100Y-108500
X182000Y-76300
X184500Y-75300
X153230Y-68800
X155730Y-67800
X30700Y-61300
X33200Y-60300
X70710Y-76300
X73210Y-75300
X72600Y-61300
X75100Y-60300
X30700Y-83800
X33200Y-82800
X54780Y-83800
X57280Y-82800
X130715Y-76300
X133215Y-75300
X170755Y-91296
X173255Y-90296
X98860Y-68800
X101360Y-67800
X141970Y-83800
X144470Y-82800
X57600Y-109500
X60100Y-108500
X189500Y-83800
X192000Y-82800
X30700Y-91300
X33200Y-90300
X89470Y-83800
X91970Y-82800
X95100Y-61300
X97600Y-60300
X57600Y-102000
X60100Y-101000
X51040Y-83805
X53540Y-82805
X119475Y-83800
X121975Y-82800
X23200Y-76300
X25700Y-75300
X189500Y-68800
X192000Y-67800
X83860Y-68800
X86360Y-67800
X57600Y-61300
X60100Y-60300
X30700Y-76300
X33200Y-75300
X78200Y-76300
X80700Y-75300
X134475Y-83805
X136975Y-82805
X110100Y-102000
X112600Y-101000
X111975Y-83800
X114475Y-82800
X144790Y-91300
X147290Y-90300
X152290Y-83810
X154790Y-82810
X23200Y-83800
X25700Y-82800
X63220Y-76300
X65720Y-75300
X38200Y-68800
X40700Y-67800
X93205Y-76305
X95705Y-75305
X167000Y-68800
X169500Y-67800
X117600Y-102000
X120100Y-101000
X189500Y-76300
X192000Y-75300
X110100Y-109500
X112600Y-108500
X167000Y-61300
X169500Y-60300
X87600Y-109500
X90100Y-108500
X154160Y-91295
X156660Y-90295
X136360Y-68800
X138860Y-67800
X61360Y-91310
X63860Y-90310
X113860Y-68800
X116360Y-67800
X102600Y-102000
X105100Y-101000
X182000Y-68800
X184500Y-67800
X143860Y-68800
X146360Y-67800
X66975Y-83800
X69475Y-82800
X135425Y-91310
X137925Y-90310
X51040Y-91300
X53540Y-90300
X145730Y-76300
X148230Y-75300
X70730Y-91300
X73230Y-90300
X74465Y-83800
X76965Y-82800
X125100Y-61300
X127600Y-60300
X144790Y-83800
X147290Y-82800
X50100Y-61300
X52600Y-60300
X69790Y-91310
X72290Y-90310
X151335Y-61306
X153835Y-60306
X167000Y-91300
X169500Y-90300
X106360Y-68800
X108860Y-67800
X80100Y-61300
X82600Y-60300
X95100Y-102000
X97600Y-101000
X189500Y-61300
X192000Y-60300
X138220Y-76300
X140720Y-75300
X125100Y-102000
X127600Y-101000
X189496Y-87545
X191996Y-86545
X61350Y-68800
X63850Y-67800
X87600Y-61300
X90100Y-60300
X148540Y-83810
X151040Y-82810
X30700Y-68800
X33200Y-67800
X126040Y-91310
X128540Y-90310
X126975Y-83805
X129475Y-82805
X80100Y-102000
X82600Y-101000
X123210Y-76300
X125710Y-75300
X132600Y-61300
X135100Y-60300
X174500Y-61300
X177000Y-60300
X87600Y-102000
X90100Y-101000
X51980Y-68800
X54480Y-67800
X154165Y-72550
X156665Y-71550
X132600Y-102000
X135100Y-101000
X117600Y-61300
X120100Y-60300
X85695Y-76300
X88195Y-75300
X134475Y-91310
X136975Y-90310
X174500Y-76300
X177000Y-75300
X72600Y-102000
X75100Y-101000
X182000Y-61300
X184500Y-60300
X102600Y-109500
X105100Y-108500
X60420Y-91300
X62920Y-90300
T9
X49000Y-67100
X96500Y-67000
X100450Y-99000
X160000Y-89300
X193500Y-55600
X44000Y-54500
X111500Y-118100
X166300Y-55700
X90900Y-80900
X191100Y-95300
X112900Y-91900
X127800Y-54200
X145400Y-106800
X164250Y-97050
X179700Y-73900
X28700Y-81300
X63300Y-55500
X55300Y-106800
X85400Y-106800
X87300Y-92800
X42250Y-97000
X172300Y-81100
X20400Y-57800
X20200Y-95700
X115400Y-106800
X48900Y-96100
T10
X137720Y-77300
X141720Y-77300
X124600Y-103000
X128600Y-103000
X188996Y-88545
X192996Y-88545
X60850Y-69800
X64850Y-69800
X87100Y-62300
X91100Y-62300
X148040Y-84810
X152040Y-84810
X30200Y-69800
X34200Y-69800
X125540Y-92310
X129540Y-92310
X126475Y-84805
X130475Y-84805
X79600Y-103000
X83600Y-103000
X122710Y-77300
X126710Y-77300
X132100Y-62300
X136100Y-62300
X174000Y-62300
X178000Y-62300
X87100Y-103000
X91100Y-103000
X51480Y-69800
X55480Y-69800
X153665Y-73550
X157665Y-73550
X132100Y-103000
X136100Y-103000
X117100Y-62300
X121100Y-62300
X85195Y-77300
X89195Y-77300
X133975Y-92310
X137975Y-92310
X174000Y-77300
X178000Y-77300
X72100Y-103000
X76100Y-103000
X181500Y-62300
X185500Y-62300
X102100Y-110500
X106100Y-110500
X59920Y-92300
X63920Y-92300
X147100Y-62300
X151100Y-62300
X189000Y-92300
X193000Y-92300
X107710Y-77300
X111710Y-77300
X79600Y-110500
X83600Y-110500
X174000Y-92300
X178000Y-92300
X139600Y-62300
X143600Y-62300
X51475Y-92300
X55475Y-92300
X64600Y-110500
X68600Y-110500
X166500Y-84800
X170500Y-84800
X52410Y-77300
X56410Y-77300
X120860Y-69800
X124860Y-69800
X128360Y-69800
X132360Y-69800
X94600Y-110500
X98600Y-110500
X81470Y-84800
X85470Y-84800
X149915Y-77301
X153915Y-77301
X22700Y-62300
X26700Y-62300
X68350Y-69800
X72350Y-69800
X109600Y-62300
X113600Y-62300
X154600Y-84800
X158600Y-84800
X132100Y-110500
X136100Y-110500
X174000Y-84800
X178000Y-84800
X58980Y-84800
X62980Y-84800
X139600Y-103000
X143600Y-103000
X181500Y-92300
X185500Y-92300
X90860Y-69800
X94860Y-69800
X64600Y-62300
X68600Y-62300
X139600Y-110500
X143600Y-110500
X37700Y-92300
X41700Y-92300
X154600Y-62300
X158600Y-62300
X64600Y-103000
X68600Y-103000
X181500Y-84800
X185500Y-84800
X103975Y-84805
X107975Y-84805
X102100Y-62300
X106100Y-62300
X97420Y-92310
X101420Y-92310
X22700Y-69800
X26700Y-69800
X189000Y-73540
X193000Y-73540
X37700Y-84800
X41700Y-84800
X100210Y-77305
X104210Y-77305
X37700Y-77300
X41700Y-77300
X166500Y-77300
X170500Y-77300
X22700Y-92300
X26700Y-92300
X96475Y-84800
X100475Y-84800
X124600Y-110500
X128600Y-110500
X174000Y-69800
X178000Y-69800
X152725Y-92295
X156725Y-92295
X117100Y-110500
X121100Y-110500
X75860Y-69800
X79860Y-69800
X37700Y-62300
X41700Y-62300
X143355Y-92305
X147355Y-92305
X115210Y-77300
X119210Y-77300
X72100Y-110500
X76100Y-110500
X181500Y-77300
X185500Y-77300
X152730Y-69800
X156730Y-69800
X30200Y-62300
X34200Y-62300
X70210Y-77300
X74210Y-77300
X72100Y-62300
X76100Y-62300
X30200Y-84800
X34200Y-84800
X54280Y-84800
X58280Y-84800
X130215Y-77300
X134215Y-77300
X170255Y-92296
X174255Y-92296
X98360Y-69800
X102360Y-69800
X141470Y-84800
X145470Y-84800
X57100Y-110500
X61100Y-110500
X189000Y-84800
X193000Y-84800
X30200Y-92300
X34200Y-92300
X88970Y-84800
X92970Y-84800
X94600Y-62300
X98600Y-62300
X57100Y-103000
X61100Y-103000
X50540Y-84805
X54540Y-84805
X118975Y-84800
X122975Y-84800
X22700Y-77300
X26700Y-77300
X189000Y-69800
X193000Y-69800
X83360Y-69800
X87360Y-69800
X57100Y-62300
X61100Y-62300
X30200Y-77300
X34200Y-77300
X77700Y-77300
X81700Y-77300
X133975Y-84805
X137975Y-84805
X109600Y-103000
X113600Y-103000
X111475Y-84800
X115475Y-84800
X144290Y-92300
X148290Y-92300
X151790Y-84810
X155790Y-84810
X22700Y-84800
X26700Y-84800
X62720Y-77300
X66720Y-77300
X37700Y-69800
X41700Y-69800
X92705Y-77305
X96705Y-77305
X166500Y-69800
X170500Y-69800
X117100Y-103000
X121100Y-103000
X189000Y-77300
X193000Y-77300
X109600Y-110500
X113600Y-110500
X166500Y-62300
X170500Y-62300
X87100Y-110500
X91100Y-110500
X153660Y-92295
X157660Y-92295
X135860Y-69800
X139860Y-69800
X60860Y-92310
X64860Y-92310
X113360Y-69800
X117360Y-69800
X102100Y-103000
X106100Y-103000
X181500Y-69800
X185500Y-69800
X143360Y-69800
X147360Y-69800
X66475Y-84800
X70475Y-84800
X134925Y-92310
X138925Y-92310
X50540Y-92300
X54540Y-92300
X145230Y-77300
X149230Y-77300
X70230Y-92300
X74230Y-92300
X73965Y-84800
X77965Y-84800
X124600Y-62300
X128600Y-62300
X144290Y-84800
X148290Y-84800
X49600Y-62300
X53600Y-62300
X69290Y-92310
X73290Y-92310
X150835Y-62306
X154835Y-62306
X166500Y-92300
X170500Y-92300
X105860Y-69800
X109860Y-69800
X79600Y-62300
X83600Y-62300
X94600Y-103000
X98600Y-103000
X189000Y-62300
X193000Y-62300
T11
X102100Y-92310
X106100Y-92310
T12
X81600Y-89560
X126600Y-89560
T13
X51595Y-82044
X60965Y-82044
X167570Y-89540
X176940Y-89540
X148150Y-59550
X157520Y-59550
X188240Y-83860
X188240Y-93230
X145355Y-82054
X154725Y-82054
X152909Y-68865
X152909Y-78235
X147230Y-74545
X156600Y-74545
X79735Y-89554
X119105Y-89554
X188244Y-68855
X188244Y-78225
T14
X81600Y-95560
X104100Y-92310
X126600Y-95560
T15
X111600Y-110500
X168500Y-62300
X89100Y-110500
X155660Y-92295
X137860Y-69800
X62860Y-92310
X115360Y-69800
X104100Y-103000
X183500Y-69800
X145360Y-69800
X68475Y-84800
X136925Y-92310
X52540Y-92300
X147230Y-77300
X72230Y-92300
X75965Y-84800
X126600Y-62300
X146290Y-84800
X51600Y-62300
X71290Y-92310
X148150Y-65550
X152835Y-62306
X157520Y-65550
X168500Y-92300
X107860Y-69800
X81600Y-62300
X96600Y-103000
X191000Y-62300
X139720Y-77300
X126600Y-103000
X190996Y-88545
X194240Y-83860
X194240Y-93230
X62850Y-69800
X89100Y-62300
X145355Y-88054
X150040Y-84810
X154725Y-88054
X32200Y-69800
X127540Y-92310
X128475Y-84805
X81600Y-103000
X124710Y-77300
X134100Y-62300
X176000Y-62300
X89100Y-103000
X53480Y-69800
X155665Y-73550
X158909Y-68865
X158909Y-78235
X134100Y-103000
X119100Y-62300
X87195Y-77300
X135975Y-92310
X176000Y-77300
X74100Y-103000
X183500Y-62300
X104100Y-110500
X61920Y-92300
X149100Y-62300
X191000Y-92300
X109710Y-77300
X81600Y-110500
X176000Y-92300
X141600Y-62300
X53475Y-92300
X66600Y-110500
X168500Y-84800
X54410Y-77300
X122860Y-69800
X130360Y-69800
X96600Y-110500
X83470Y-84800
X147230Y-80545
X151915Y-77301
X156600Y-80545
X24700Y-62300
X70350Y-69800
X111600Y-62300
X156600Y-84800
X134100Y-110500
X176000Y-84800
X60980Y-84800
X141600Y-103000
X183500Y-92300
X92860Y-69800
X66600Y-62300
X141600Y-110500
X39700Y-92300
X156600Y-62300
X66600Y-103000
X183500Y-84800
X105975Y-84805
X104100Y-62300
X79735Y-95554
X99420Y-92310
X119105Y-95554
X24700Y-69800
X191000Y-73540
X194244Y-68855
X194244Y-78225
X39700Y-84800
X102210Y-77305
X39700Y-77300
X168500Y-77300
X24700Y-92300
X98475Y-84800
X126600Y-110500
X176000Y-69800
X154725Y-92295
X119100Y-110500
X77860Y-69800
X39700Y-62300
X145355Y-92305
X117210Y-77300
X74100Y-110500
X183500Y-77300
X154730Y-69800
X32200Y-62300
X72210Y-77300
X74100Y-62300
X32200Y-84800
X51595Y-88044
X56280Y-84800
X60965Y-88044
X132215Y-77300
X167570Y-95540
X172255Y-92296
X176940Y-95540
X100360Y-69800
X143470Y-84800
X59100Y-110500
X191000Y-84800
X32200Y-92300
X90970Y-84800
X96600Y-62300
X59100Y-103000
X52540Y-84805
X120975Y-84800
X24700Y-77300
X191000Y-69800
X85360Y-69800
X59100Y-62300
X32200Y-77300
X79700Y-77300
X135975Y-84805
X111600Y-103000
X113475Y-84800
X146290Y-92300
X153790Y-84810
X24700Y-84800
X64720Y-77300
X39700Y-69800
X94705Y-77305
X168500Y-69800
X119100Y-103000
X191000Y-77300
T0
M30
